<svg width="198" height="55" viewBox="0 0 198 55" fill="none" xmlns="http://www.w3.org/2000/svg">
<g clip-path="url(#clip0_2_1785)">
<path d="M0 54H198" stroke="#8D8D8D" stroke-linecap="square"/>
<path fill-rule="evenodd" clip-rule="evenodd" d="M12.045 9.88087H21.1374V8.15883H12.045C10.7824 8.1656 9.61113 8.40242 8.51774 8.85915C7.43111 9.31588 6.47313 9.94177 5.64716 10.7504C4.82119 11.5522 4.17802 12.4893 3.71087 13.5415C3.24373 14.6004 3.00677 15.7372 3 16.9517C3.00677 18.1663 3.24373 19.2929 3.71087 20.3552C4.17802 21.4074 4.82119 22.3378 5.64716 23.1328C6.47313 23.9346 7.43111 24.5605 8.51774 25.0105C9.61113 25.4672 10.7824 25.6973 12.045 25.7041C13.1012 25.6973 14.0795 25.5349 14.9765 25.2033C15.8804 24.8786 16.7063 24.4286 17.4646 23.8467V32.0645C17.4578 33.0354 17.2209 33.9117 16.7605 34.6932C16.3001 35.4747 15.6739 36.1006 14.8784 36.5641C14.0896 37.0276 13.1858 37.2712 12.1838 37.278C11.1581 37.2712 10.2408 37.0276 9.40463 36.5641C8.57867 36.1006 7.91857 35.4747 7.43111 34.6932C6.9335 33.9151 6.68977 33.0354 6.67285 32.0645V30.295H3.04401C3.07447 31.4961 3.32836 32.6227 3.7955 33.6681C4.26265 34.7135 4.90582 35.6405 5.72502 36.4355C6.53744 37.2306 7.48528 37.8565 8.56513 38.3064C9.63821 38.7632 10.7993 38.9899 12.0484 39C13.3111 38.9932 14.4823 38.7632 15.5859 38.3234C16.6792 37.8802 17.644 37.2712 18.47 36.4829C19.3061 35.6946 19.956 34.7812 20.4232 33.7425C20.8971 32.7039 21.1341 31.584 21.1442 30.383V16.9517C21.151 16.9382 21.1374 16.9281 21.09 16.9213C21.0359 16.9078 20.9072 16.8976 20.6838 16.8908C20.4604 16.8841 20.1016 16.8773 19.5972 16.8705C19.0827 16.8638 18.3786 16.8638 17.468 16.8638V18.6332C17.4612 19.6042 17.2242 20.4736 16.7639 21.2619C16.3035 22.0434 15.6772 22.6693 14.8817 23.1328C14.093 23.5963 13.1892 23.8399 12.1872 23.8467C11.1615 23.8399 10.2441 23.5963 9.40802 23.1328C8.58205 22.6693 7.92195 22.0434 7.4345 21.2619C6.93689 20.4736 6.69316 19.6042 6.67623 18.6332V15.1384C6.69316 14.1674 6.93689 13.2911 7.41757 12.5096C7.89826 11.7213 8.54143 11.0954 9.34709 10.6252C10.1527 10.1549 11.0498 9.90456 12.045 9.88087ZM33.6285 8.24679C32.3659 8.25356 31.1946 8.48362 30.1012 8.9302C29.0146 9.38016 28.0566 10.0061 27.2306 10.8011C26.4047 11.5962 25.7615 12.5164 25.2944 13.5719C24.8272 14.6173 24.5903 15.7439 24.5835 16.9517C24.5903 18.1663 24.8272 19.2929 25.2944 20.3485C25.7615 21.4074 26.4047 22.3378 27.2306 23.1328C27.8603 23.7452 28.5678 24.2527 29.3463 24.6586H33.6285V23.8467C32.6333 23.823 31.7362 23.5726 30.9272 23.1024C30.1249 22.6321 29.4817 22.013 28.9977 21.2315C28.5136 20.45 28.2699 19.5839 28.2563 18.6332V15.1384C28.2733 14.1674 28.517 13.281 29.0078 12.5028C29.4987 11.7146 30.1554 11.0954 30.9813 10.6319C31.8005 10.1684 32.7111 9.93162 33.7199 9.92486C34.7456 9.93162 35.663 10.1617 36.4822 10.6083C37.3014 11.0582 37.9581 11.6672 38.4421 12.4487C38.9228 13.2235 39.1767 14.1065 39.1835 15.091H31.8344V16.857H42.7175C42.7108 15.6492 42.4738 14.5294 41.9965 13.4907C41.5294 12.4521 40.8794 11.5386 40.0467 10.7504C39.2207 9.96207 38.256 9.34971 37.1626 8.9099C36.0624 8.47347 34.8911 8.25356 33.6285 8.24679ZM49.7484 14.8305C49.7653 13.8595 50.0091 12.99 50.4999 12.2153C50.9907 11.4338 51.6407 10.818 52.4599 10.3579C53.2723 9.90117 54.1728 9.66435 55.168 9.65758C56.0312 9.66435 56.8199 9.84028 57.5477 10.1887C58.2687 10.5338 58.8713 11.0142 59.3689 11.6165C59.8665 12.2187 60.2118 12.9054 60.4014 13.6768H63.4784C63.0587 12.5637 62.429 11.586 61.6031 10.7368C60.7771 9.89102 59.8124 9.22792 58.6953 8.74751C57.5782 8.27048 56.3697 8.02689 55.0766 8.01674C53.8275 8.0235 52.6664 8.25356 51.5933 8.69337C50.5135 9.13657 49.5724 9.74555 48.76 10.5338C47.9475 11.3221 47.3145 12.2356 46.8609 13.2742C46.4005 14.3129 46.1703 15.4327 46.1636 16.6337V24.6485H49.745V14.8305H49.7484ZM89.3779 7.98291C88.3827 7.98967 87.4281 8.13853 86.5243 8.4261C85.6205 8.72044 84.7945 9.13319 84.043 9.6542C83.2847 10.1854 82.6348 10.8045 82.0762 11.5183C81.5245 10.8045 80.8745 10.1854 80.123 9.6542C79.3715 9.13319 78.5456 8.72044 77.6417 8.4261C76.7447 8.13853 75.7901 7.99305 74.7712 7.98291C73.5153 7.98967 72.3373 8.21973 71.2507 8.66631C70.164 9.10951 69.2162 9.7354 68.397 10.5304C67.5778 11.3255 66.9346 12.2457 66.4743 13.2911C66.0139 14.3433 65.7769 15.4699 65.7702 16.6879V24.6586H69.399V14.8745C69.4125 13.9035 69.6596 13.0272 70.1573 12.2457C70.6481 11.4642 71.3048 10.8383 72.1308 10.3748C72.9635 9.91132 73.8843 9.66774 74.91 9.66097C75.9119 9.66774 76.8158 9.91132 77.6045 10.3748C78.4 10.8383 79.0296 11.4642 79.4866 12.2457C79.947 13.0272 80.184 13.9035 80.1907 14.8745V22.4291H83.8636V14.8745C83.8771 13.9035 84.1242 13.0272 84.6151 12.2457C85.1127 11.4642 85.7626 10.8383 86.5886 10.3748C87.4078 9.91132 88.3184 9.66774 89.3305 9.66097C90.3495 9.66774 91.2601 9.91132 92.0623 10.3748C92.8578 10.8383 93.4875 11.4642 93.9512 12.2457C94.4116 13.0272 94.6486 13.9035 94.6553 14.8745V24.6586H98.467V16.6879C98.4602 15.4733 98.2232 14.3467 97.7459 13.2911C97.2788 12.2457 96.6288 11.3255 95.7961 10.5304C94.9701 9.7354 94.0054 9.10951 92.912 8.66631C91.8186 8.21635 90.6406 7.98967 89.3779 7.98291ZM107.241 7.93892H103.612V24.6586H107.241V7.93892ZM107.241 2.76602C107.234 2.43447 107.15 2.14014 106.991 1.87625C106.832 1.61236 106.608 1.39922 106.334 1.24359C106.06 1.0812 105.752 1 105.406 1C105.054 1 104.733 1.0812 104.452 1.24359C104.167 1.39922 103.947 1.61236 103.778 1.87625C103.619 2.14014 103.534 2.43447 103.528 2.76602C103.534 3.09081 103.619 3.39191 103.778 3.65919C103.947 3.92308 104.167 4.13622 104.452 4.29184C104.736 4.44747 105.058 4.52867 105.406 4.53543C105.752 4.52867 106.056 4.44747 106.334 4.29184C106.608 4.13622 106.832 3.92308 106.991 3.65919C107.15 3.39191 107.234 3.09081 107.241 2.76602ZM121.388 7.93892C120.118 7.94569 118.93 8.17575 117.837 8.63248C116.743 9.08244 115.778 9.7151 114.949 10.5169C114.116 11.3289 113.473 12.2626 113.006 13.3216C112.539 14.3907 112.302 15.5376 112.295 16.7758V24.6586H115.924V14.9184C115.941 13.9306 116.191 13.0408 116.689 12.2457C117.187 11.4507 117.86 10.818 118.693 10.3444C119.526 9.86734 120.453 9.62375 121.479 9.61699C122.498 9.62375 123.415 9.86734 124.234 10.3444C125.047 10.8146 125.69 11.4507 126.171 12.2457C126.645 13.0408 126.888 13.9339 126.899 14.9184V24.6586H130.571V16.7758C130.565 15.5376 130.328 14.3907 129.854 13.3216C129.387 12.2626 128.73 11.3255 127.894 10.5169C127.051 9.7151 126.079 9.07906 124.979 8.63248C123.865 8.17236 122.674 7.94569 121.388 7.93892ZM143.519 7.98291C142.257 7.98967 141.086 8.21973 139.992 8.66631C138.906 9.10951 137.948 9.7354 137.122 10.5304C136.296 11.3255 135.652 12.2457 135.185 13.2911C134.718 14.3433 134.481 15.4699 134.471 16.6879C134.478 17.9092 134.715 19.0527 135.185 20.1049C135.652 21.157 136.296 22.0874 137.122 22.8825C137.893 23.6302 138.777 24.2188 139.776 24.6586H143.523V23.6708C142.528 23.6471 141.631 23.4001 140.822 22.9332C140.019 22.4765 139.376 21.8506 138.892 21.0759C138.408 20.2943 138.164 19.4181 138.151 18.4539V14.8745C138.164 13.9035 138.411 13.0272 138.909 12.2457C139.4 11.4642 140.056 10.8383 140.882 10.3748C141.719 9.91132 142.636 9.66774 143.662 9.66097C144.664 9.66774 145.567 9.91132 146.37 10.3748C147.165 10.8383 147.802 11.4642 148.269 12.2457C148.736 13.0272 148.98 13.9035 148.986 14.8745V24.6586H152.615V16.6879C152.608 15.4733 152.372 14.3467 151.904 13.2911C151.437 12.2457 150.794 11.3255 149.968 10.5304C149.135 9.7354 148.171 9.10951 147.074 8.66631C145.977 8.21635 144.792 7.98967 143.519 7.98291ZM160.1 14.8305C160.117 13.8595 160.36 12.99 160.851 12.2153C161.342 11.4338 161.992 10.818 162.811 10.3579C163.624 9.90117 164.524 9.66435 165.519 9.65758C166.386 9.66435 167.171 9.84028 167.899 10.1887C168.617 10.5338 169.223 11.0142 169.72 11.6165C170.218 12.2187 170.563 12.9054 170.753 13.6768H173.83C173.41 12.5637 172.78 11.586 171.954 10.7368C171.128 9.89102 170.164 9.22792 169.047 8.74751C167.929 8.27048 166.721 8.02689 165.428 8.01674C164.179 8.0235 163.018 8.25356 161.945 8.69337C160.865 9.13657 159.924 9.74555 159.115 10.5338C158.302 11.3221 157.669 12.2356 157.216 13.2742C156.755 14.3129 156.525 15.4327 156.518 16.6337V24.6485H160.1V14.8305ZM184.026 8.24679C182.763 8.25356 181.592 8.48362 180.498 8.9302C179.412 9.38016 178.454 10.0061 177.628 10.8011C176.802 11.5962 176.159 12.5164 175.692 13.5719C175.224 14.6173 174.987 15.7439 174.981 16.9517C174.987 18.1663 175.224 19.2929 175.692 20.3485C176.159 21.4074 176.802 22.3378 177.628 23.1328C178.257 23.7452 178.965 24.2527 179.744 24.6586H184.026V23.8467C183.03 23.823 182.137 23.5726 181.324 23.1024C180.522 22.6321 179.879 22.013 179.395 21.2315C178.911 20.45 178.667 19.5839 178.654 18.6332V15.1384C178.67 14.1674 178.914 13.281 179.405 12.5028C179.896 11.7146 180.553 11.0954 181.379 10.6319C182.198 10.1684 183.108 9.93162 184.117 9.92486C185.143 9.93162 186.06 10.1617 186.879 10.6083C187.699 11.0582 188.359 11.6672 188.839 12.4487C189.32 13.2235 189.574 14.1065 189.581 15.091H182.232V16.857H193.115C193.108 15.6492 192.871 14.5294 192.397 13.4907C191.93 12.4521 191.28 11.5386 190.444 10.7504C189.618 9.96207 188.653 9.34971 187.556 8.9099C186.46 8.47347 185.288 8.25356 184.026 8.24679Z" fill="#FF6600"/>
<path fill-rule="evenodd" clip-rule="evenodd" d="M32.41 31.6145C29.8475 32.7411 24.3907 30.5758 23.3312 23.5896C23.1111 18.7888 24.1233 27.1284 29.2483 27.5749C30.3993 27.6764 33.7607 27.6629 33.4289 30.268C33.3612 30.8296 33.0397 31.3371 32.41 31.6145Z" fill="#289548"/>
</g>
<defs>
<clipPath id="clip0_2_1785">
<rect width="198" height="55" fill="white"/>
</clipPath>
</defs>
</svg>
